<?xml version="1.0" encoding="utf-8"?>
<!-- Generator: Adobe Illustrator 26.4.1, SVG Export Plug-In . SVG Version: 6.00 Build 0)  -->
<svg version="1.1" id="Layer_1" xmlns="http://www.w3.org/2000/svg" xmlns:xlink="http://www.w3.org/1999/xlink" x="0px" y="0px"
	 viewBox="0 0 26 26" style="enable-background:new 0 0 26 26;" xml:space="preserve">
<style type="text/css">
	.st0{fill:#003366;}
	.st1{fill:#003366;stroke:#000000;stroke-width:1.1417;stroke-linecap:round;stroke-linejoin:round;stroke-miterlimit:10;}
	.st2{fill:#003366;stroke:#000000;stroke-width:1.1693;stroke-linecap:round;stroke-linejoin:round;stroke-miterlimit:10;}
</style>
<g>
	<g>
		<g>
			<path class="st0" d="M22.3,25H3.7C2.2,25,1,23.8,1,22.3v-18C1,2.5,2.5,1,4.3,1h17.3C23.5,1,25,2.5,25,4.3v18
				C25,23.8,23.8,25,22.3,25z M4.3,2.1c-1.2,0-2.2,1-2.2,2.2v18c0,0.9,0.7,1.6,1.6,1.6h18.6c0.9,0,1.6-0.7,1.6-1.6v-18
				c0-1.2-1-2.2-2.2-2.2H4.3z"/>
		</g>
	</g>
	<path class="st0" d="M18.5,19.2h-11c-0.3,0-0.6-0.3-0.6-0.6s0.3-0.6,0.6-0.6h11c0.3,0,0.6,0.3,0.6,0.6S18.8,19.2,18.5,19.2z"/>
</g>
</svg>
