<?xml version="1.0" encoding="utf-8"?>
<!-- Generator: Adobe Illustrator 26.4.1, SVG Export Plug-In . SVG Version: 6.00 Build 0)  -->
<svg version="1.1" id="Layer_1" xmlns="http://www.w3.org/2000/svg" xmlns:xlink="http://www.w3.org/1999/xlink" x="0px" y="0px"
	 viewBox="0 0 26 26" style="enable-background:new 0 0 26 26;" xml:space="preserve">
<style type="text/css">
	.st0{fill:#003366;}
	.st1{fill:#003366;stroke:#000000;stroke-width:1.1417;stroke-linecap:round;stroke-linejoin:round;stroke-miterlimit:10;}
	.st2{fill:#003366;stroke:#000000;stroke-width:1.1693;stroke-linecap:round;stroke-linejoin:round;stroke-miterlimit:10;}
</style>
<g>
	<g>
		<path class="st0" d="M23,24.3H3c-1.1,0-2-0.9-2-2v-8.5c0-0.3,0.3-0.6,0.6-0.6s0.6,0.3,0.6,0.6v8.5c0,0.5,0.4,0.8,0.8,0.8h20
			c0.5,0,0.8-0.4,0.8-0.8v-8.5c0-0.3,0.3-0.6,0.6-0.6c0.3,0,0.6,0.3,0.6,0.6v8.5C25,23.4,24.1,24.3,23,24.3z"/>
	</g>
	<path class="st0" d="M12.5,17.6l-0.3-0.4l-3.9-4.2l0,0c-0.2-0.2-0.2-0.6,0-0.8c0.2-0.2,0.6-0.2,0.8,0l0,0l3.3,3.5V2.2
		c0-0.3,0.3-0.6,0.6-0.6c0.3,0,0.6,0.3,0.6,0.6v13.6l0.2-0.2l3-3.3l0,0c0.2-0.2,0.6-0.2,0.8,0c0.2,0.2,0.2,0.6,0,0.8l0,0l-3.9,4.2
		l-0.3,0.4C13.2,17.9,12.8,17.9,12.5,17.6z"/>
</g>
</svg>
