<?xml version="1.0" encoding="utf-8"?>
<!-- Generator: Adobe Illustrator 26.4.1, SVG Export Plug-In . SVG Version: 6.00 Build 0)  -->
<svg version="1.1" id="Layer_1" xmlns="http://www.w3.org/2000/svg" xmlns:xlink="http://www.w3.org/1999/xlink" x="0px" y="0px"
	 viewBox="0 0 26 26" style="enable-background:new 0 0 26 26;" xml:space="preserve">
<style type="text/css">
	.st0{fill:#003366;}
	.st1{fill:#003366;stroke:#000000;stroke-width:1.1417;stroke-linecap:round;stroke-linejoin:round;stroke-miterlimit:10;}
	.st2{fill:#003366;stroke:#000000;stroke-width:1.1693;stroke-linecap:round;stroke-linejoin:round;stroke-miterlimit:10;}
</style>
<path class="st0" d="M13.8,13l11-11c0.2-0.2,0.2-0.6,0-0.8c-0.2-0.2-0.6-0.2-0.8,0l-11,11L2,1.2c-0.2-0.2-0.6-0.2-0.8,0
	C0.9,1.4,0.9,1.8,1.2,2l11,11l-11,11c-0.2,0.2-0.2,0.6,0,0.8C1.3,24.9,1.4,25,1.6,25s0.3-0.1,0.4-0.2l11-11l11,11
	c0.1,0.1,0.3,0.2,0.4,0.2c0.1,0,0.3-0.1,0.4-0.2c0.2-0.2,0.2-0.6,0-0.8L13.8,13z"/>
</svg>
