<?xml version="1.0" encoding="utf-8"?>
<!-- Generator: Adobe Illustrator 26.4.1, SVG Export Plug-In . SVG Version: 6.00 Build 0)  -->
<svg version="1.1" id="Layer_1" xmlns="http://www.w3.org/2000/svg" xmlns:xlink="http://www.w3.org/1999/xlink" x="0px" y="0px"
	 viewBox="0 0 26 26" style="enable-background:new 0 0 26 26;" xml:space="preserve">
<style type="text/css">
	.st0{fill:#FFFFFF;}
	.st1{fill:#FFFFFF;stroke:#000000;stroke-width:1.1417;stroke-linecap:round;stroke-linejoin:round;stroke-miterlimit:10;}
	.st2{fill:#FFFFFF;stroke:#000000;stroke-width:1.1693;stroke-linecap:round;stroke-linejoin:round;stroke-miterlimit:10;}
</style>
<path class="st0" d="M10.7,22.1c-0.1,0-0.3,0-0.4-0.1l-9.1-8.3C1.1,13.6,1,13.4,1,13.2c0-0.2,0.1-0.3,0.2-0.4L10.3,4
	c0.2-0.2,0.6-0.2,0.8,0c0.2,0.2,0.2,0.6,0,0.8L3,12.6h21.4c0.3,0,0.6,0.3,0.6,0.6s-0.3,0.6-0.6,0.6H3l8,7.4c0.2,0.2,0.2,0.6,0,0.8
	C11,22.1,10.8,22.1,10.7,22.1z" transform="rotate(90) translate(0 -26)"/>
</svg>
